<?xml version="1.0" standalone="no"?><svg xmlns="http://www.w3.org/2000/svg" viewBox="0 0 1440 320"><path fill="#fff" fill-opacity="1" d="M0,96L16,112C32,128,64,160,96,192C128,224,160,256,192,272C224,288,256,288,288,245.3C320,203,352,117,384,96C416,75,448,117,480,165.3C512,213,544,267,576,256C608,245,640,171,672,149.3C704,128,736,160,768,192C800,224,832,256,864,266.7C896,277,928,267,960,266.7C992,267,1024,277,1056,266.7C1088,256,1120,224,1152,186.7C1184,149,1216,107,1248,106.7C1280,107,1312,149,1344,138.7C1376,128,1408,64,1424,32L1440,0L1440,320L1424,320C1408,320,1376,320,1344,320C1312,320,1280,320,1248,320C1216,320,1184,320,1152,320C1120,320,1088,320,1056,320C1024,320,992,320,960,320C928,320,896,320,864,320C832,320,800,320,768,320C736,320,704,320,672,320C640,320,608,320,576,320C544,320,512,320,480,320C448,320,416,320,384,320C352,320,320,320,288,320C256,320,224,320,192,320C160,320,128,320,96,320C64,320,32,320,16,320L0,320Z"></path></svg>